<svg width="28" height="28" viewBox="0 0 28 28" fill="none" xmlns="http://www.w3.org/2000/svg">
<g clip-path="url(#clip0_136_9)">
<path d="M23.4459 20.7514C24.055 20.3916 24.4287 19.7369 24.4287 19.0294V7.6709L14.6972 13.4195C14.0881 13.7792 13.7144 14.434 13.7144 15.1414V26.5L23.4459 20.7514Z" fill="white"/>
<path d="M24.4286 7.67087L14.7125 2.07488C14.0946 1.71902 13.334 1.71902 12.7161 2.07488L4.00182 7.09387C3.38199 7.45086 3 8.11169 3 8.82697V18.7415C3 19.4335 3.35773 20.0763 3.94581 20.4411L13.7143 26.5M24.4286 7.67087V19.0294C24.4286 19.7369 24.0549 20.3916 23.4458 20.7514L13.7143 26.5M24.4286 7.67087L14.6971 13.4195C14.088 13.7792 13.7143 14.434 13.7143 15.1414V26.5" stroke="white" stroke-width="2"/>
</g>
<defs>
<clipPath id="clip0_136_9">
<rect width="24" height="28" fill="white" transform="translate(2)"/>
</clipPath>
</defs>
</svg>
